# Tiled2Unity generated file. Do not modify by hand.
# Wavefront file for 'new_mesh_0002.obj'

# Vertices (Count = 12)
v -3360 -3990 0
v -3430 -3990 0
v -3430 -3920 0
v -3360 -3920 0
v -3360 -4060 0
v -3430 -4060 0
v -3430 -3990 0
v -3360 -3990 0
v -3360 -4130 0
v -3430 -4130 0
v -3430 -4060 0
v -3360 -4060 0

# Texture cooridinates (Count = 4)
vt 0 0
vt 1 0
vt 1 1
vt 0 1

# Normal
vn 0 0 -1

# Mesh description
g new_mesh_0002

# Faces
f 1/1/1 2/2/1 3/3/1 4/4/1
f 5/1/1 6/2/1 7/3/1 8/4/1
f 9/1/1 10/2/1 11/3/1 12/4/1

