# Tiled2Unity generated file. Do not modify by hand.
# Wavefront file for 'Tes-Map_mesh_0016.obj'

# Vertices (Count = 24)
v -15 -11 0
v -16 -11 0
v -16 -10 0
v -15 -10 0
v -15 -10 0
v -16 -10 0
v -16 -9 0
v -15 -9 0
v -15 -9 0
v -16 -9 0
v -16 -8 0
v -15 -8 0
v -15 -8 0
v -16 -8 0
v -16 -7 0
v -15 -7 0
v -15 -7 0
v -16 -7 0
v -16 -6 0
v -15 -6 0
v -15 -6 0
v -16 -6 0
v -16 -5 0
v -15 -5 0

# Texture cooridinates (Count = 4)
vt 0.125 0.9333333
vt 0.25 0.9333333
vt 0.25 1
vt 0.125 1

# Normal
vn 0 0 -1

# Mesh description
g Tes-Map_mesh_0016

# Faces
f 1/1/1 2/2/1 3/3/1 4/4/1
f 5/1/1 6/2/1 7/3/1 8/4/1
f 9/1/1 10/2/1 11/3/1 12/4/1
f 13/1/1 14/2/1 15/3/1 16/4/1
f 17/1/1 18/2/1 19/3/1 20/4/1
f 21/1/1 22/2/1 23/3/1 24/4/1

