# Tiled2Unity generated file. Do not modify by hand.
# Wavefront file for 'Tes-Map_mesh_0022.obj'

# Vertices (Count = 12)
v -1 -12 0
v -2 -12 0
v -2 -11 0
v -1 -11 0
v -5 -11 0
v -6 -11 0
v -6 -10 0
v -5 -10 0
v -1 -11 0
v -2 -11 0
v -2 -10 0
v -1 -10 0

# Texture cooridinates (Count = 8)
vt 0.25 0.8666667
vt 0.375 0.8666667
vt 0.375 0.9333333
vt 0.25 0.9333333
vt 0.75 0.8666667
vt 0.875 0.8666667
vt 0.875 0.9333333
vt 0.75 0.9333333

# Normal
vn 0 0 -1

# Mesh description
g Tes-Map_mesh_0022

# Faces
f 1/1/1 2/2/1 3/3/1 4/4/1
f 5/5/1 6/6/1 7/7/1 8/8/1
f 9/1/1 10/2/1 11/3/1 12/4/1

